<svg width="619" height="292" viewBox="0 0 619 292" fill="none" xmlns="http://www.w3.org/2000/svg">
<path d="M94.5 292C63.7683 292 40.3354 286 24.2012 274C8.06708 261.733 0 244.267 0 221.6V74.4C0 51.7333 8.06708 34.4 24.2012 22.4C40.3354 10.1333 63.7683 4 94.5 4C125.232 4 148.665 10.1333 164.799 22.4C180.933 34.4 189 51.7333 189 74.4V98.4H129.073V71.6C129.073 53.2 118.125 44 96.2287 44C74.3323 44 63.3842 53.2 63.3842 71.6V224.8C63.3842 242.933 74.3323 252 96.2287 252C118.125 252 129.073 242.933 129.073 224.8V170H97.3811V130H189V221.6C189 244.267 180.933 261.733 164.799 274C148.665 286 125.232 292 94.5 292Z" fill="black"/>
<path d="M487.151 0H561.849L619 288H563.854L553.828 230.811V231.634H491.162L481.135 288H430L487.151 0ZM547.31 192.549L522.745 50.1943H521.743L497.679 192.549H547.31Z" fill="black"/>
<path d="M228.823 267.361L262.988 250.403C259.978 239.501 257.405 228.403 255.269 217.109C253.142 205.815 251.591 194.365 250.615 182.758L232.524 197.451C231.291 198.536 230.361 199.777 229.735 201.175C229.109 202.572 228.8 204.127 228.81 205.837L228.823 267.361ZM276.881 248.457H332.119C336.262 234.916 339.599 220.106 342.131 204.026C344.663 187.946 345.929 171.201 345.929 153.791C345.929 128.475 342.753 105.166 336.4 83.8647C330.048 62.563 319.414 41.9882 304.5 22.1403C289.586 42.0106 278.952 62.591 272.6 83.8814C266.247 105.172 263.071 128.481 263.071 153.808C263.071 171.229 264.337 187.974 266.869 204.043C269.401 220.111 272.738 234.916 276.881 248.457ZM304.5 156.206C298.672 156.206 293.765 153.78 289.779 148.927C285.783 144.085 283.786 138.125 283.786 131.047C283.786 123.969 285.783 118.009 289.779 113.167C293.775 108.325 298.682 105.899 304.5 105.888C310.318 105.876 315.225 108.303 319.221 113.167C323.217 118.009 325.214 123.969 325.214 131.047C325.214 138.125 323.217 144.085 319.221 148.927C315.225 153.769 310.318 156.195 304.5 156.206ZM380.177 267.361V206.173C380.177 204.451 379.873 202.841 379.265 201.342C378.639 199.833 377.705 198.536 376.462 197.451L358.385 182.758C357.409 194.365 355.632 206.944 353.055 220.497C350.477 234.05 348.129 244.124 346.012 250.722L380.177 267.361ZM304.5 0C323.566 20.5524 337.537 43.7103 346.412 69.4735C355.296 95.2367 359.738 123.935 359.738 155.569C359.738 156.855 359.784 158.197 359.876 159.594C359.969 160.992 359.923 162.446 359.738 163.955L383.698 183.563C386.902 185.989 389.42 189.232 391.252 193.291C393.084 197.35 394 201.644 394 206.173V292L339.107 265.23H269.631L215 292V205.854C215 201.337 215.875 197.043 217.624 192.973C219.364 188.914 221.836 185.671 225.04 183.244L249.262 163.62V155.569C249.262 123.924 253.704 95.2255 262.588 69.4735C271.463 43.7103 285.434 20.5524 304.5 0Z" fill="black"/>
</svg>
